<svg xmlns="http://www.w3.org/2000/svg" viewBox="0 0 32 32" id="Spiral-Calendar--Streamline-Twemoji" height="32" width="32">
  <desc>
    Spiral Calendar Streamline Emoji: https://streamlinehq.com
  </desc>
  <path fill="#66757f" d="M25.613333333333333 3.5555555555555554h1.7742222222222221v0.8888888888888888h-1.7742222222222221z" stroke-width="0.8889"></path>
  <path fill="#ccd6dd" d="M1.7777777777777777 10.666666666666666v17.77777777777778c0 1.9635555555555555 1.5919999999999999 3.5555555555555554 3.5555555555555554 3.5555555555555554h21.333333333333332c1.9635555555555555 0 3.5555555555555554 -1.5919999999999999 3.5555555555555554 -3.5555555555555554V10.666666666666666H1.7777777777777777z" stroke-width="0.8889"></path>
  <path fill="#dd2e44" d="M26.666666666666664 3.5555555555555554H5.333333333333333C3.3697777777777773 3.5555555555555554 1.7777777777777777 5.147555555555556 1.7777777777777777 7.111111111111111v4.444444444444445h28.444444444444443V7.111111111111111c0 -1.9635555555555555 -1.5919999999999999 -3.5555555555555554 -3.5555555555555554 -3.5555555555555554z" stroke-width="0.8889"></path>
  <path d="M7.854222222222222 7.760888888888888c-0.6239999999999999 0 -1.1297777777777775 -0.592 -1.1297777777777775 -1.3235555555555556 0 -0.7306666666666666 0.5057777777777777 -1.3235555555555556 1.1297777777777775 -1.3235555555555556 0.6231111111111111 0 1.1288888888888888 0.5928888888888889 1.1288888888888888 1.3235555555555556 0 0.7306666666666666 -0.5057777777777777 1.3235555555555556 -1.1288888888888888 1.3235555555555556zm5.333333333333333 0c-0.6239999999999999 0 -1.1297777777777775 -0.592 -1.1297777777777775 -1.3235555555555556 0 -0.7306666666666666 0.5057777777777777 -1.3235555555555556 1.1297777777777775 -1.3235555555555556 0.6231111111111111 0 1.1288888888888888 0.5928888888888889 1.1288888888888888 1.3235555555555556 0 0.7306666666666666 -0.5057777777777777 1.3235555555555556 -1.1288888888888888 1.3235555555555556zm5.333333333333333 0c-0.6239999999999999 0 -1.1297777777777775 -0.592 -1.1297777777777775 -1.3235555555555556 0 -0.7306666666666666 0.5057777777777777 -1.3235555555555556 1.1297777777777775 -1.3235555555555556 0.6231111111111111 0 1.1297777777777775 0.5928888888888889 1.1297777777777775 1.3235555555555556 -0.0008888888888888888 0.7306666666666666 -0.5066666666666666 1.3235555555555556 -1.1297777777777775 1.3235555555555556zm5.333333333333333 0c-0.6239999999999999 0 -1.1297777777777775 -0.592 -1.1297777777777775 -1.3235555555555556 0 -0.7306666666666666 0.5057777777777777 -1.3235555555555556 1.1297777777777775 -1.3235555555555556 0.6231111111111111 0 1.1297777777777775 0.5928888888888889 1.1297777777777775 1.3235555555555556 -0.0008888888888888888 0.7306666666666666 -0.5066666666666666 1.3235555555555556 -1.1297777777777775 1.3235555555555556z" fill="#292f33" stroke-width="0.8889"></path>
  <path fill="#66757f" d="M24.28 0.1591111111111111c-1.135111111111111 0 -2.1182222222222222 0.7128888888888889 -2.6613333333333333 1.751111111111111 -0.5386666666666666 -1.016 -1.5262222222222221 -1.751111111111111 -2.6719999999999997 -1.751111111111111 -1.135111111111111 0 -2.1182222222222222 0.7128888888888889 -2.6613333333333333 1.751111111111111 -0.5386666666666666 -1.016 -1.5262222222222221 -1.751111111111111 -2.6719999999999997 -1.751111111111111 -1.135111111111111 0 -2.1182222222222222 0.7128888888888889 -2.6613333333333333 1.751111111111111 -0.5386666666666666 -1.016 -1.5262222222222221 -1.751111111111111 -2.6719999999999997 -1.751111111111111 -1.719111111111111 0 -3.1111111111111107 1.6168888888888888 -3.1111111111111107 3.5599999999999996 0 1.648 0.9288888888888888 2.9964444444444442 2.2835555555555556 3.489777777777778 0.6746666666666666 0.24444444444444446 1.0879999999999999 -0.3973333333333333 1.0302222222222222 -0.9119999999999999 -0.048888888888888885 -0.42666666666666664 -0.33244444444444443 -0.7048888888888889 -0.6479999999999999 -0.9048888888888889 -0.43111111111111106 -0.27288888888888885 -0.8888888888888888 -0.8959999999999999 -0.8888888888888888 -1.6684444444444444 0 -0.9813333333333334 0.5964444444444444 -1.8622222222222222 1.3333333333333333 -1.8622222222222222s1.3333333333333333 0.8044444444444444 1.3333333333333333 1.6933333333333334h0.9031111111111111c-0.0026666666666666666 0.05511111111111111 -0.014222222222222221 0.10755555555555554 -0.014222222222222221 0.16355555555555554 0 1.648 0.9288888888888888 2.9964444444444442 2.2835555555555556 3.489777777777778 0.6746666666666666 0.24444444444444446 1.0879999999999999 -0.3973333333333333 1.0302222222222222 -0.9119999999999999 -0.048888888888888885 -0.42577777777777776 -0.33244444444444443 -0.704 -0.6479999999999999 -0.9039999999999999 -0.43111111111111106 -0.27288888888888885 -0.8888888888888888 -0.8959999999999999 -0.8888888888888888 -1.6684444444444444 0 -0.9813333333333334 0.5964444444444444 -1.8622222222222222 1.3333333333333333 -1.8622222222222222S14.946666666666667 2.6666666666666665 14.946666666666667 3.5555555555555554h0.9031111111111111c-0.0026666666666666666 0.05511111111111111 -0.014222222222222221 0.10755555555555554 -0.014222222222222221 0.16355555555555554 0 1.648 0.9288888888888888 2.9964444444444442 2.2835555555555556 3.489777777777778 0.6746666666666666 0.24444444444444446 1.0879999999999999 -0.3973333333333333 1.0302222222222222 -0.9119999999999999 -0.048888888888888885 -0.42577777777777776 -0.33244444444444443 -0.704 -0.6479999999999999 -0.9039999999999999 -0.43111111111111106 -0.27288888888888885 -0.8888888888888888 -0.8959999999999999 -0.8888888888888888 -1.6684444444444444 0 -0.9813333333333334 0.5964444444444444 -1.8622222222222222 1.3333333333333333 -1.8622222222222222S20.28 2.6666666666666665 20.28 3.5555555555555554h0.9031111111111111c-0.0026666666666666666 0.05511111111111111 -0.014222222222222221 0.10755555555555554 -0.014222222222222221 0.16355555555555554 0 1.648 0.9288888888888888 2.9964444444444442 2.2835555555555556 3.489777777777778 0.6746666666666666 0.24444444444444446 1.0879999999999999 -0.3973333333333333 1.0302222222222222 -0.9119999999999999 -0.048888888888888885 -0.42577777777777776 -0.33244444444444443 -0.704 -0.6479999999999999 -0.9039999999999999 -0.43111111111111106 -0.27288888888888885 -0.8888888888888888 -0.8959999999999999 -0.8888888888888888 -1.6684444444444444 0 -0.9813333333333334 0.5964444444444444 -1.8622222222222222 1.3333333333333333 -1.8622222222222222S25.613333333333333 2.6666666666666665 25.613333333333333 3.5555555555555554h1.7742222222222221C27.368888888888886 1.7777777777777777 25.986666666666665 0.1591111111111111 24.28 0.1591111111111111z" stroke-width="0.8889"></path>
  <path d="M9.777777777777777 13.333333333333332h3.5555555555555554v3.5555555555555554h-3.5555555555555554zm4.444444444444445 0h3.5555555555555554v3.5555555555555554h-3.5555555555555554zm4.444444444444445 0h3.5555555555555554v3.5555555555555554h-3.5555555555555554zm4.444444444444445 0h3.5555555555555554v3.5555555555555554h-3.5555555555555554zM5.333333333333333 17.77777777777778h3.5555555555555554v3.5555555555555554H5.333333333333333zm4.444444444444445 0h3.5555555555555554v3.5555555555555554h-3.5555555555555554zm4.444444444444445 0h3.5555555555555554v3.5555555555555554h-3.5555555555555554zm4.444444444444445 0h3.5555555555555554v3.5555555555555554h-3.5555555555555554zm4.444444444444445 0h3.5555555555555554v3.5555555555555554h-3.5555555555555554zM5.333333333333333 22.22222222222222h3.5555555555555554v3.5555555555555554H5.333333333333333zm4.444444444444445 0h3.5555555555555554v3.5555555555555554h-3.5555555555555554zm4.444444444444445 0h3.5555555555555554v3.5555555555555554h-3.5555555555555554zm4.444444444444445 0h3.5555555555555554v3.5555555555555554h-3.5555555555555554zm4.444444444444445 0h3.5555555555555554v3.5555555555555554h-3.5555555555555554zM5.333333333333333 26.666666666666664h3.5555555555555554v3.5555555555555554H5.333333333333333zm4.444444444444445 0h3.5555555555555554v3.5555555555555554h-3.5555555555555554zm4.444444444444445 0h3.5555555555555554v3.5555555555555554h-3.5555555555555554z" fill="#ffffff" stroke-width="0.8889"></path>
</svg>